<?xml version="1.0" encoding="UTF-8"?>
<svg id="Layer_2" data-name="Layer 2" xmlns="http://www.w3.org/2000/svg" viewBox="0 0 38.4075 15.5336">
  <g id="Layer_2-2" data-name="Layer 2">
    <path d="M38.2825,15.5336c0-5.2823-4.6711-8.3282-6.2428-9.5169-.795-.6013-1.0919-1.2952-1.0214-2.0975.0709-.8074.2798-1.3422.9013-1.6462.581-.2841.4897-.9159.291-1.323-.2228-.4565-6.5804-.7848-13.0069-.8249-6.4265.0401-12.7841.3684-13.0069.8249-.1987.4072-.29,1.0389.291,1.323.6215.304.8304.8387.9013,1.6462.0705.8023-.2264,1.4962-1.0214,2.0975C4.7961,7.2054.125,10.2512.125,15.5336" fill="none" stroke="blue" stroke-miterlimit="10" stroke-width=".25"></path>
  </g>
</svg>