<svg xmlns="http://www.w3.org/2000/svg" id="Layer_2" data-name="Layer 2" viewBox="0 0 38.407 15.534"><path id="Layer_2-2" fill="none" stroke="#00f" stroke-miterlimit="10" stroke-width=".25" d="M38.283 15.534c0-5.283-4.672-8.329-6.243-9.517-.795-.602-1.092-1.295-1.022-2.098.071-.807.28-1.342.902-1.646.58-.284.49-.916.29-1.323-.222-.457-6.58-.785-13.006-.825C12.777.165 6.42.493 6.197.95c-.199.407-.29 1.039.29 1.323.622.304.831.839.902 1.646.07.803-.226 1.496-1.021 2.098C4.796 7.205.125 10.25.125 15.534" data-name="Layer 2"/></svg>