<svg xmlns="http://www.w3.org/2000/svg" id="a" viewBox="0 0 38.407 48.578"><path fill="none" stroke="red" stroke-miterlimit="10" stroke-width=".25" d="M34.613 1.479s.045-.697-.231-.955c-.372-.349-.929-.155-.929-.155L26.97 2.15 19.204.129 11.437 2.15 4.954.37s-.556-.194-.929.155c-.275.258-.231.955-.231.955v13.176s-.029.769 1.451.769c1.118 0 1.364-.498 1.527-1.207.23-.997-.257-1.51-.764-1.582s-.493-.818-.493-.818V9.609c0-.559 13.731-3.569 13.731-3.569S32.89 9.05 32.89 9.609v2.209s.014.746-.493.818-.994.585-.764 1.582c.164.709.409 1.207 1.527 1.207 1.481 0 1.451-.769 1.451-.769V1.479Z"/></svg>