<?xml version="1.0" encoding="UTF-8"?><svg xmlns="http://www.w3.org/2000/svg" id="a" viewBox="0 0 38.407 48.578"><path d="M34.613,1.479s.045-.697-.231-.955c-.372-.349-.929-.155-.929-.155l-6.483,1.781L19.204.129l-7.767,2.021L4.954.37s-.556-.194-.929.155c-.275.258-.231.955-.231.955v13.176s-.029.769,1.451.769c1.118,0,1.364-.498,1.527-1.207.23-.997-.257-1.51-.764-1.582-.507-.072-.493-.818-.493-.818v-2.209c0-.559,13.731-3.569,13.731-3.569,0,0,13.644,3.01,13.644,3.569v2.209s.014.746-.493.818c-.507.072-.994.585-.764,1.582.164.709.409,1.207,1.527,1.207,1.481,0,1.451-.769,1.451-.769V1.479Z" fill="none" stroke="red" stroke-miterlimit="10" stroke-width=".25"/></svg>