<?xml version="1.0" encoding="UTF-8"?>
<svg id="Layer_2" data-name="Layer 2" xmlns="http://www.w3.org/2000/svg" viewBox="0 0 37.324 40">
  <g id="Layer_3" data-name="Layer 3">
    <polygon points="34.015 0 34.015 4.0557 26.6055 .4003 26.6055 0 34.015 0"></polygon>
    <path d="M34.8054,0v4.5496s2.5187.9449,2.5187-1.7158C37.324.8456,37.1659.2384,37.0308,0h-2.2255Z"></path>
    <polygon points="25.0248 0 25.0248 .5505 18.9984 5.4388 18.9984 0 25.0248 0"></polygon>
    <polygon points="25.0248 1.8159 25.0248 7.2021 18.9984 12.0904 18.9984 6.7062 25.0248 1.8159"></polygon>
    <polyline points="26.6055 1.3219 26.6055 7.0519 34.015 10.7073 34.015 4.9773"></polyline>
    <path d="M34.8054,5.3116v5.8896s2.5187.9449,2.5187-1.7158-.2832-2.8482-.4152-2.9883c-.5752-.6104-2.1034-1.1856-2.1034-1.1856Z"></path>
    <polygon points="25.0248 8.4675 25.0248 13.8537 18.9984 18.742 18.9984 13.3578 25.0248 8.4675"></polygon>
    <polyline points="26.6055 7.9735 26.6055 13.7035 34.015 17.3589 34.015 11.6289"></polyline>
    <path d="M34.8054,11.9632v5.8896s2.5187.9449,2.5187-1.7158-.2832-2.8482-.4152-2.9883c-.5752-.6104-2.1034-1.1856-2.1034-1.1856Z"></path>
    <polygon points="25.0248 15.1191 25.0248 20.5053 18.9984 25.3936 18.9984 20.0094 25.0248 15.1191"></polygon>
    <polyline points="26.6055 14.6251 26.6055 20.3551 34.015 24.0105 34.015 18.2805"></polyline>
    <path d="M34.8054,18.6148v5.8896s2.5187.9449,2.5187-1.7158-.2832-2.8482-.4152-2.9883c-.5752-.6104-2.1034-1.1856-2.1034-1.1856Z"></path>
    <polygon points="25.0248 21.7707 25.0248 27.1569 18.9984 32.0452 18.9984 26.661 25.0248 21.7707"></polygon>
    <polyline points="26.6055 21.2767 26.6055 27.0068 34.015 30.6621 34.015 24.9321"></polyline>
    <path d="M34.8054,25.2664v5.8896s2.5187.9449,2.5187-1.7158-.2832-2.8482-.4152-2.9883c-.5752-.6104-2.1034-1.1856-2.1034-1.1856Z"></path>
    <polygon points="25.0248 28.4223 25.0248 33.8085 18.9984 38.6968 18.9984 33.3126 25.0248 28.4223"></polygon>
    <polyline points="26.6055 27.9283 26.6055 33.6584 34.015 37.3137 34.015 31.5837"></polyline>
    <path d="M34.8054,31.918v5.8896s2.5187.9449,2.5187-1.7158-.2832-2.8482-.4152-2.9883c-.5752-.6104-2.1034-1.1856-2.1034-1.1856Z"></path>
    <polygon points="18.9984 40 25.0248 35.0739 25.0248 40 18.9984 40"></polygon>
    <polygon points="26.6055 40 26.6055 34.5799 34.015 38.2353 34.015 40 26.6055 40"></polygon>
    <path d="M37.0747,39.9999c-.0614-.1463-.122-.1981-.1659-.2447-.5752-.6104-2.1034-1.1856-2.1034-1.1856v1.4304h2.2693Z"></path>
    <polygon points="3.309 0 3.309 4.0557 10.7185 .4003 10.7185 0 3.309 0"></polygon>
    <path d="M2.5187,0v4.5496S0,5.4945,0,2.8339C0,.8456.1582.2384.2932,0h2.2255Z"></path>
    <polygon points="12.2992 0 12.2992 .5505 18.3256 5.4388 18.3256 0 12.2992 0"></polygon>
    <polygon points="12.2992 1.8159 12.2992 7.2021 18.3256 12.0904 18.3256 6.7062 12.2992 1.8159"></polygon>
    <polyline points="10.7185 1.3219 10.7185 7.0519 3.309 10.7073 3.309 4.9773"></polyline>
    <path d="M2.5187,5.3116v5.8896S0,12.1461,0,9.4855s.2832-2.8482.4152-2.9883c.5752-.6104,2.1034-1.1856,2.1034-1.1856Z"></path>
    <polygon points="12.2992 8.4675 12.2992 13.8537 18.3256 18.742 18.3256 13.3578 12.2992 8.4675"></polygon>
    <polyline points="10.7185 7.9735 10.7185 13.7035 3.309 17.3589 3.309 11.6289"></polyline>
    <path d="M2.5187,11.9632v5.8896S0,18.7977,0,16.1371c0-2.6606.2832-2.8482.4152-2.9883.5752-.6104,2.1034-1.1856,2.1034-1.1856Z"></path>
    <polygon points="12.2992 15.1191 12.2992 20.5053 18.3256 25.3936 18.3256 20.0094 12.2992 15.1191"></polygon>
    <polyline points="10.7185 14.6251 10.7185 20.3551 3.309 24.0105 3.309 18.2805"></polyline>
    <path d="M2.5187,18.6148v5.8896S0,25.4493,0,22.7887c0-2.6606.2832-2.8482.4152-2.9883.5752-.6104,2.1034-1.1856,2.1034-1.1856Z"></path>
    <polygon points="12.2992 21.7707 12.2992 27.1569 18.3256 32.0452 18.3256 26.661 12.2992 21.7707"></polygon>
    <polyline points="10.7185 21.2767 10.7185 27.0068 3.309 30.6621 3.309 24.9321"></polyline>
    <path d="M2.5187,25.2664v5.8896S0,32.101,0,29.4403c0-2.6606.2832-2.8482.4152-2.9883.5752-.6104,2.1034-1.1856,2.1034-1.1856Z"></path>
    <polygon points="12.2992 28.4223 12.2992 33.8085 18.3256 38.6968 18.3256 33.3126 12.2992 28.4223"></polygon>
    <polyline points="10.7185 27.9283 10.7185 33.6584 3.309 37.3137 3.309 31.5837"></polyline>
    <path d="M2.5187,31.918v5.8896S0,38.7526,0,36.0919c0-2.6606.2832-2.8482.4152-2.9883.5752-.6104,2.1034-1.1856,2.1034-1.1856Z"></path>
    <polygon points="18.3256 40 12.2992 35.0739 12.2992 40 18.3256 40"></polygon>
    <polygon points="10.7185 40 10.7185 34.5799 3.309 38.2353 3.309 40 10.7185 40"></polygon>
    <path d="M.2494,39.9999c.0614-.1463.122-.1981.1659-.2447.5752-.6104,2.1034-1.1856,2.1034-1.1856v1.4304H.2494Z"></path>
  </g>
</svg>