<svg xmlns="http://www.w3.org/2000/svg" id="Layer_2" data-name="Layer 2" viewBox="0 0 37.324 40"><g id="Layer_3" data-name="Layer 3"><path d="M34.015 0v4.056L26.605.4V0zM34.805 0v4.55s2.52.945 2.52-1.716C37.323.846 37.164.238 37.03 0zM25.025 0v.55L18.998 5.44V0zM25.025 1.816v5.386l-6.027 4.888V6.706zM26.606 1.322v5.73l7.409 3.655v-5.73M34.805 5.312v5.89s2.52.944 2.52-1.717-.284-2.848-.416-2.988c-.575-.61-2.103-1.186-2.103-1.186ZM25.025 8.468v5.386l-6.027 4.888v-5.384zM26.606 7.974v5.73l7.409 3.655v-5.73M34.805 11.963v5.89s2.52.945 2.52-1.716-.284-2.848-.416-2.988c-.575-.61-2.103-1.186-2.103-1.186ZM25.025 15.12v5.385l-6.027 4.889v-5.385zM26.606 14.625v5.73l7.409 3.656v-5.73M34.805 18.615v5.89s2.52.944 2.52-1.716-.284-2.849-.416-2.989c-.575-.61-2.103-1.185-2.103-1.185ZM25.025 21.77v5.387l-6.027 4.888v-5.384zM26.606 21.277v5.73l7.409 3.655v-5.73M34.805 25.266v5.89s2.52.945 2.52-1.716-.284-2.848-.416-2.988c-.575-.61-2.103-1.186-2.103-1.186ZM25.025 28.422v5.387l-6.027 4.888v-5.384zM26.606 27.928v5.73l7.409 3.656v-5.73M34.805 31.918v5.89s2.52.945 2.52-1.716-.284-2.848-.416-2.988c-.575-.61-2.103-1.186-2.103-1.186ZM18.998 40l6.027-4.926V40zM26.606 40v-5.42l7.409 3.655V40zM37.075 40c-.062-.146-.122-.198-.166-.245-.575-.61-2.104-1.185-2.104-1.185V40zM3.309 0v4.056L10.719.4V0zM2.519 0v4.55S0 5.495 0 2.834C0 .846.158.238.293 0zM12.3 0v.55l6.026 4.889V0zM12.3 1.816v5.386l6.026 4.888V6.706zM10.719 1.322v5.73l-7.41 3.655v-5.73M2.519 5.312v5.89S0 12.145 0 9.485s.283-2.849.415-2.989C.99 5.887 2.52 5.312 2.52 5.312M12.3 8.468v5.386l6.026 4.888v-5.384zM10.719 7.974v5.73l-7.41 3.655v-5.73M2.519 11.963v5.89S0 18.798 0 16.137s.283-2.848.415-2.988c.575-.61 2.104-1.186 2.104-1.186M12.3 15.12v5.385l6.026 4.889v-5.385zM10.719 14.625v5.73l-7.41 3.656v-5.73M2.519 18.615v5.89S0 25.448 0 22.788.283 19.94.415 19.8c.575-.61 2.104-1.185 2.104-1.185M12.3 21.77v5.387l6.026 4.888v-5.384zM10.719 21.277v5.73l-7.41 3.655v-5.73M2.519 25.266v5.89S0 32.101 0 29.44s.283-2.848.415-2.988c.575-.61 2.104-1.186 2.104-1.186M12.3 28.422v5.387l6.026 4.888v-5.384zM10.719 27.928v5.73l-7.41 3.656v-5.73M2.519 31.918v5.89S0 38.753 0 36.092s.283-2.848.415-2.988c.575-.61 2.104-1.186 2.104-1.186M18.326 40l-6.027-4.926V40zM10.719 40v-5.42l-7.41 3.655V40zM.25 40c.06-.146.121-.198.165-.245.576-.61 2.104-1.185 2.104-1.185V40z"/></g></svg>