<?xml version="1.0" encoding="UTF-8"?><svg id="a" xmlns="http://www.w3.org/2000/svg" viewBox="0 0 40 19.962"><path d="M38.42,19.962c-.58,0-1.309-.12-1.762-.637-.186-.212-.596-.854-.651-1.128-.074-.368-.04-1.268.237-1.578.21-.234.414-.227.612-.221.1.003.203.007.308-.021.029-.009.46-.227.484-.246.056-.044.239-.448.253-.538l-.027-3.054c-.108-.305-.242-.609-.493-.769-.219-.139-.713-.341-1.073-.488-.086-.035-.163-.067-.227-.094-3.201-1.342-6.118-2.219-9.18-2.763-.274-.049-.556-.103-.829-.155-.799-.153-1.624-.31-2.436-.375-5.535-.439-11.129.234-16.177,1.946-1.413.479-3.26,1.141-5.028,2.016l-.303.579-.026,3.294c.014.185.225.418.371.514.213.14.375.134.546.127.105-.004.214-.008.338.021.208.049.42.218.503.404.409.914-.116,2.245-.84,2.781-.1.074-.623.304-.735.324-.249.043-1.23.043-1.499,0-.4-.064-.795-.562-.783-.986V1.336s0-.001,0-.001c.039-.352.214-.649.494-.838.291-.195.659-.245,1.012-.137l8.256,2.271.457-.01L20.018,0h.005c1.713.402,3.436.894,5.102,1.37,1.518.434,3.087.882,4.647,1.261l.457-.01L38.601.322h.005c.094.015.187.013.277.01.158-.004.323-.008.484.082.051.029.085.069.115.104.018.021.034.04.052.055.023.019.053.037.084.056.062.037.126.075.158.137.068.128.211.62.224.774v17.378c-.046.537-.394.917-.909.994-.162.024-.401.05-.671.05ZM36.757,16.441c-.161,0-.317.026-.48.208-.258.288-.301,1.17-.227,1.538.054.267.457.898.64,1.107.65.742,1.89.647,2.394.572.493-.074.827-.438.871-.951V1.542c-.013-.148-.152-.628-.219-.754-.027-.05-.085-.085-.142-.119-.033-.02-.064-.038-.09-.06-.021-.017-.039-.038-.058-.061-.029-.034-.059-.069-.103-.094-.15-.085-.301-.081-.461-.077-.091.002-.184.005-.28-.009l-8.369,2.298-.468.01h-.003c-1.561-.379-3.132-.828-4.651-1.262-1.664-.476-3.384-.967-5.094-1.367l-9.793,2.62-.468.01h-.003S1.494.403,1.494.403c-.34-.104-.695-.056-.975.132-.268.18-.437.466-.474.803v17.58c-.012.397.371.88.745.941.26.042,1.245.042,1.485,0,.106-.018.622-.246.717-.316.711-.526,1.226-1.831.826-2.725-.076-.171-.279-.333-.472-.378-.119-.028-.224-.023-.326-.02-.171.007-.347.014-.572-.134-.148-.097-.375-.34-.392-.551l.027-3.308.315-.602.007-.003c1.773-.878,3.625-1.542,5.04-2.022,5.054-1.714,10.654-2.388,16.195-1.948.814.065,1.641.222,2.441.375.273.052.555.106.829.155,3.065.544,5.985,1.422,9.189,2.765.064.027.141.058.227.093.362.148.858.351,1.08.492.264.168.402.481.513.796v.007s.028,3.061.028,3.061c-.014.099-.199.515-.27.571-.026.021-.47.246-.5.254-.111.029-.217.025-.32.022-.033-.001-.065-.002-.098-.002Z"/></svg>