<?xml version="1.0" encoding="UTF-8"?><svg id="a" xmlns="http://www.w3.org/2000/svg" viewBox="0 0 40.215 20.169"><path d="M.128,19V1.883s-.058-.905.3-1.24c.484-.453,1.206-.201,1.206-.201l8.422,2.313L20.147.129l9.893,2.627L38.731.451s.676-.233,1.078.095c.348.283.273,1.078.273,1.078v17.376s.097,1.044-1.535,1.044-2.477-1.15-2.427-2.569,1.432-1.419,1.432-1.419c0,0,.515-.071.515-.957s-.095-2.677-.095-2.677l-17.884-4.617S2.365,11.716,2.365,12.442v2.87s-.018.969.641,1.063,1.291.761.992,2.055c-.213.921-.531,1.569-1.984,1.569-1.923,0-1.886-.999-1.886-.999Z" fill="none" stroke="red" stroke-miterlimit="10" stroke-width=".25"/></svg>