<?xml version="1.0" encoding="UTF-8"?><svg id="a" xmlns="http://www.w3.org/2000/svg" viewBox="0 0 38.407 48.578"><path d="M38.282,25.231c0-5.282-4.671-8.328-6.243-9.517-.795-.601-1.092-1.295-1.021-2.098.071-.807.28-1.342.901-1.646.581-.284.49-.916.291-1.323-.223-.457-6.58-.785-13.007-.825-6.427.04-12.784.368-13.007.825-.199.407-.29,1.039.291,1.323.622.304.83.839.901,1.646.07.802-.226,1.496-1.021,2.098C4.796,16.902.125,19.948.125,25.231" fill="none" stroke="blue" stroke-miterlimit="10" stroke-width=".25"/></svg>